<svg id="Layer_1" data-name="Layer 1" xmlns="http://www.w3.org/2000/svg" viewBox="0 0 1525.1 1525.17"><defs><style>.cls-1{fill:none;stroke:#000;stroke-miterlimit:10;stroke-width:10px}</style></defs><title>black</title><path class="cls-1" d="M1525.11 1525.13L0 1525.17V0h1525.11v1525.13z"/><path d="M459.48 705.63V558.37l-48.18 95.79h-33.36l-48.59-95.79v147.26h-49.34V453.07h48.66l65.94 136.52 65.64-136.52h48.56v252.56h-49.33zM607.74 705.63V453.07h166.33v43.96H657.02v59.27h99.68v44h-99.68v61.34h117.05v43.99H607.74zM966.15 497.03v208.56h-49.32V497.03h-65.96v-43.96h181.26v43.96h-65.98zM1179.35 527.54l-32 91.83h62.74zm58.86 178l-14.9-44.71h-89.74l-15.26 44.71h-51.43l91.91-252.51h38.64l92.23 252.51zM610.81 1078.6V826.06h49.28v208.52h114.54v44.02H610.81zM939.2 900.5l-31.9 91.92H970zm58.8 178.1l-14.9-44.74h-89.67l-15.24 44.74h-51.44l91.87-252.54h38.68l92.18 252.54zM1214.39 972.52H1163v62.05h51.41c22.37 0 33-14.15 33-31.21s-10.64-30.84-33-30.84M1211.14 870H1163v58.17h48.16c21 0 32.69-11.71 32.69-29.09S1232.16 870 1211.14 870m8.22 208.58h-105.7V826.06h101.44c49.29 0 78 27.64 78 71 0 27.95-18.49 46.08-31.19 52 15.19 7.16 34.69 23.1 34.69 56.76 0 47.22-32.25 72.76-77.28 72.76M411 963.18v103.93h-26.98V963.18H280.01v-27.01h104.01V832.84H411v103.33h103.33v27.01H411z"/></svg>