<svg id="Layer_1" data-name="Layer 1" xmlns="http://www.w3.org/2000/svg" viewBox="0 0 1584 1584"><defs><style>.cls-1{fill:none;stroke:#fff;stroke-miterlimit:10;stroke-width:20px;}.cls-2{fill:#fff;}</style></defs><title>white_1</title><polygon class="cls-1" points="1554.55 1554.55 29.45 1554.59 29.45 29.41 1554.55 29.41 1554.55 1554.55"/><polygon class="cls-2" points="488.92 735.05 488.92 587.79 440.74 683.58 407.39 683.58 358.8 587.79 358.8 735.05 309.46 735.05 309.46 482.49 358.11 482.49 424.06 619 489.7 482.49 538.26 482.49 538.26 735.05 488.92 735.05"/><polygon class="cls-2" points="637.19 735.05 637.19 482.49 803.51 482.49 803.51 526.45 686.46 526.45 686.46 585.72 786.15 585.72 786.15 629.71 686.46 629.71 686.46 691.05 803.51 691.05 803.51 735.05 637.19 735.05"/><polygon class="cls-2" points="995.59 526.45 995.59 735 946.28 735 946.28 526.45 880.32 526.45 880.32 482.49 1061.58 482.49 1061.58 526.45 995.59 526.45"/><path class="cls-2" d="M1208.8,557l-32,91.83h62.74Zm58.86,178-14.9-44.71H1163L1147.76,735h-51.43l91.91-252.51h38.64L1319.1,735Z"/><polygon class="cls-2" points="640.26 1108.01 640.26 855.47 689.53 855.47 689.53 1063.99 804.08 1063.99 804.08 1108.01 640.26 1108.01"/><path class="cls-2" d="M968.65,929.92l-31.9,91.92h62.72ZM1027.48,1108l-14.9-44.74H922.88L907.64,1108H856.2l91.87-252.54h38.68L1078.93,1108Z"/><path class="cls-2" d="M1243.83,1001.94h-51.41V1064h51.41c22.37,0,33-14.15,33-31.21s-10.64-30.84-33-30.84m-3.24-102.51h-48.16V957.6h48.16c21,0,32.69-11.71,32.69-29.09s-11.68-29.08-32.69-29.08m8.22,208.58h-105.7V855.47h101.44c49.29,0,78,27.64,78,71,0,27.95-18.49,46.08-31.19,52,15.19,7.16,34.69,23.1,34.69,56.76,0,47.22-32.25,72.76-77.28,72.76"/><polygon class="cls-2" points="440.44 992.6 440.44 1096.52 413.46 1096.52 413.46 992.6 309.46 992.6 309.46 965.58 413.46 965.58 413.46 862.26 440.44 862.26 440.44 965.58 543.78 965.58 543.78 992.6 440.44 992.6"/></svg>